<svg width="76.000000" height="72.000000" viewBox="0 0 76 72" fill="none" xmlns="http://www.w3.org/2000/svg" xmlns:xlink="http://www.w3.org/1999/xlink">
	<desc>
			Created with Pixso.
	</desc>
	<defs/>
	<rect id="Icon=home" width="75.000000" height="72.000000" fill="#FFFFFF" fill-opacity="0"/>
	<path id="Vector" d="M73.8916 39.3L76 37.2L66.0603 27.3L66.0603 0L52.1044 0L52.1044 13.6001L38.4498 0L1 37.2L3.1084 39.3L10.9398 31.5L10.9398 69.1001L6.92371 69.1001L6.92371 72L71.0803 72L71.0803 69.1001L65.9598 69.1001L65.9598 31.5L73.8916 39.3ZM63.0482 24.3999L55.1165 16.5L55.1165 2.8999L63.0482 2.8999L63.0482 24.3999ZM63.0482 69.1001L13.8514 69.1001L13.8514 28.5L38.4498 4.1001L63.0482 28.5L63.0482 69.1001ZM30.8192 27.1001C30.8192 31.3999 34.3334 34.8 38.5502 34.8C42.8674 34.8 46.3815 31.3 46.3815 27.1001C46.3815 22.8 42.8674 19.3999 38.5502 19.3999C34.3334 19.3999 30.8192 22.8 30.8192 27.1001ZM38.6506 22.1001C41.3615 22.1001 43.6707 24.3 43.6707 27C43.6707 29.7 41.4618 31.8999 38.6506 31.8999C35.9397 31.8999 33.6305 29.7 33.6305 27C33.6305 24.3 35.8394 22.1001 38.6506 22.1001ZM20.9799 41.2L17.9679 41.2L17.9679 45.1001L20.9799 45.1001L20.9799 41.2ZM26.9036 41.2L23.8916 41.2L23.8916 45.1001L26.9036 45.1001L26.9036 41.2ZM30.6185 65L46.6827 65L46.6827 41.2L30.6185 41.2L30.6185 65ZM53.0081 41.2L49.996 41.2L49.996 45.1001L53.0081 45.1001L53.0081 41.2ZM58.9318 41.2L55.9197 41.2L55.9197 45.1001L58.9318 45.1001L58.9318 41.2ZM33.5302 44.1001L43.6707 44.1001L43.6707 62.1001L33.5302 62.1001L33.5302 44.1001ZM20.9799 47.2L17.9679 47.2L17.9679 51.1001L20.9799 51.1001L20.9799 47.2ZM26.9036 47.2L23.8916 47.2L23.8916 51.1001L26.9036 51.1001L26.9036 47.2ZM53.0081 47.2L49.996 47.2L49.996 51.1001L53.0081 51.1001L53.0081 47.2ZM58.9318 47.2L55.9197 47.2L55.9197 51.1001L58.9318 51.1001L58.9318 47.2Z" fill="#83B3D3" fill-opacity="1.000000" fill-rule="evenodd"/>
</svg>
